# xmcd
#
# Track frame offsets: 
#        150
#        14857
#        24167
#        37432
#        49234
#        59348
#        84688
#        94196
#        108066
#        122149
#        136045
#        152712
#        164137
#        183989
#        200252
#        218372
#        229863
#        251931
#        260649
#        276565
#
# Disc length: 3878 seconds
#
# Revision: 0
# Processed by: cddbd v1.5.2PL0 Copyright (c) Steve Scherf et al.
# Submitted via: ExactAudioCopy v0.99pb4
#
DISCID=290f2414
DTITLE=Various Artist - Hollywood Musicals - The Golden Age
DYEAR=2006
DGENRE=Musical
TTITLE0=Doris Day - The Deadwood Stage (Whip-Crack-Away)
TTITLE1=Danny Kaye and Chorus - Wonderful Copenhagen
TTITLE2=Gene Kelly - Singin' In The Rain
TTITLE3=Gordon McRae - Oh, What A Beautiful Mornin'
TTITLE4=Judy Garland - Over The Rainbow
TTITLE5=Fred Astaire - Top Hat, White Tie And Tails
TTITLE6=Al Jolson - My Mammy
TTITLE7=Howard Keel, Tommy Hall, Russ Tamblyn and Cast - Spring, Spring,
TTITLE7=Spring
TTITLE8=Frank Sinatra - One For My Baby(And One More For The Road)
TTITLE9=Bing Crosby - Count Your Blessings Instead Of Sheep
TTITLE10=William Warfield - Ol' Man River
TTITLE11=Universal-International Orchestra - Moonlight Serenade
TTITLE12=Fred Astaire - Flying Down To Rio
TTITLE13=Doris Day - Secret Love
TTITLE14=Howard Keel And Kathryn Grayson - Wunderbar
TTITLE15=Fred Astaire, Jack Buchanan And Nanette Fabray - Triplets
TTITLE16=Gordon McRae, Shirley Jones and Charlotte Greenwood - The Surre
TTITLE16=y With The Fringe On Top
TTITLE17=Gene Kelly - If You Knew Susie (Like I Know Susie)
TTITLE18=James Whitmore And Keenan Wynn - Brush Up Your Shakespeare
TTITLE19=Betty Hutton And Howard Keel - Anything You Can Do
EXTD=
EXTT0=
EXTT1=
EXTT2=
EXTT3=
EXTT4=
EXTT5=
EXTT6=
EXTT7=
EXTT8=
EXTT9=
EXTT10=
EXTT11=
EXTT12=
EXTT13=
EXTT14=
EXTT15=
EXTT16=
EXTT17=
EXTT18=
EXTT19=
PLAYORDER=
